<svg xmlns="http://www.w3.org/2000/svg" xmlns:xlink="http://www.w3.org/1999/xlink" contentStyleType="text/css" data-diagram-type="CLASS" height="1257px" preserveAspectRatio="none" style="width:485px;height:1257px;background:#FFFFFF;" version="1.1" viewBox="0 0 485 1257" width="485px" zoomAndPan="magnify"><defs/><g><!--class Utilisateur--><g class="entity" data-entity="Utilisateur" data-source-line="1" data-uid="ent0002" id="entity_Utilisateur"><rect fill="#F1F1F1" height="145.7813" rx="2.5" ry="2.5" style="stroke:#181818;stroke-width:0.5;" width="149.4092" x="159.3" y="7"/><ellipse cx="194.7297" cy="23" fill="#ADD1B2" rx="11" ry="11" style="stroke:#181818;stroke-width:1;"/><path d="M198.8391,29 L191.1204,29 L191.1204,16.6094 L198.8391,16.6094 L198.8391,18.7656 L193.5735,18.7656 L193.5735,21.4375 L198.3391,21.4375 L198.3391,23.5938 L193.5735,23.5938 L193.5735,26.8438 L198.8391,26.8438 L198.8391,29 Z " fill="#000000"/><text fill="#000000" font-family="sans-serif" font-size="14" lengthAdjust="spacing" textLength="72.0098" x="213.2697" y="27.8467">Utilisateur</text><line style="stroke:#181818;stroke-width:0.5;" x1="160.3" x2="307.7092" y1="39" y2="39"/><ellipse cx="170.3" cy="52.6484" fill="none" rx="3" ry="3" style="stroke:#038048;stroke-width:1;"/><text fill="#000000" font-family="sans-serif" font-size="14" lengthAdjust="spacing" textLength="123.4092" x="179.3" y="55.9951">id_utilisateur [PK]</text><line style="stroke:#181818;stroke-width:1;" x1="160.3" x2="307.7092" y1="63.2969" y2="63.2969"/><text fill="#000000" font-family="sans-serif" font-size="14" lengthAdjust="spacing" textLength="31.0762" x="165.3" y="80.292">nom</text><text fill="#000000" font-family="sans-serif" font-size="14" lengthAdjust="spacing" textLength="54.332" x="165.3" y="96.5889">prenom</text><text fill="#000000" font-family="sans-serif" font-size="14" lengthAdjust="spacing" textLength="38.6094" x="165.3" y="112.8857">email</text><text fill="#000000" font-family="sans-serif" font-size="14" lengthAdjust="spacing" textLength="99.8594" x="165.3" y="129.1826">mot_de_passe</text><text fill="#000000" font-family="sans-serif" font-size="14" lengthAdjust="spacing" textLength="26.8242" x="165.3" y="145.4795">role</text></g><!--class Entreprise--><g class="entity" data-entity="Entreprise" data-source-line="11" data-uid="ent0003" id="entity_Entreprise"><rect fill="#F1F1F1" height="145.7813" rx="2.5" ry="2.5" style="stroke:#181818;stroke-width:0.5;" width="150.5576" x="163.72" y="1104.61"/><ellipse cx="199.6635" cy="1120.61" fill="#ADD1B2" rx="11" ry="11" style="stroke:#181818;stroke-width:1;"/><path d="M203.7728,1126.61 L196.0541,1126.61 L196.0541,1114.2194 L203.7728,1114.2194 L203.7728,1116.3756 L198.5072,1116.3756 L198.5072,1119.0475 L203.2728,1119.0475 L203.2728,1121.2038 L198.5072,1121.2038 L198.5072,1124.4538 L203.7728,1124.4538 L203.7728,1126.61 Z " fill="#000000"/><text fill="#000000" font-family="sans-serif" font-size="14" lengthAdjust="spacing" textLength="72.0166" x="218.3176" y="1125.4567">Entreprise</text><line style="stroke:#181818;stroke-width:0.5;" x1="164.72" x2="313.2776" y1="1136.61" y2="1136.61"/><ellipse cx="174.72" cy="1150.2584" fill="none" rx="3" ry="3" style="stroke:#038048;stroke-width:1;"/><text fill="#000000" font-family="sans-serif" font-size="14" lengthAdjust="spacing" textLength="124.5576" x="183.72" y="1153.6051">id_entreprise [PK]</text><line style="stroke:#181818;stroke-width:1;" x1="164.72" x2="313.2776" y1="1160.9069" y2="1160.9069"/><text fill="#000000" font-family="sans-serif" font-size="14" lengthAdjust="spacing" textLength="31.0762" x="169.72" y="1177.902">nom</text><text fill="#000000" font-family="sans-serif" font-size="14" lengthAdjust="spacing" textLength="52.3359" x="169.72" y="1194.1989">secteur</text><text fill="#000000" font-family="sans-serif" font-size="14" lengthAdjust="spacing" textLength="79.2012" x="169.72" y="1210.4957">localisation</text><text fill="#000000" font-family="sans-serif" font-size="14" lengthAdjust="spacing" textLength="77.8408" x="169.72" y="1226.7926">description</text><text fill="#000000" font-family="sans-serif" font-size="14" lengthAdjust="spacing" textLength="31.541" x="169.72" y="1243.0895">note</text></g><!--class Etudiant--><g class="entity" data-entity="Etudiant" data-source-line="21" data-uid="ent0004" id="entity_Etudiant"><rect fill="#F1F1F1" height="96.8906" rx="2.5" ry="2.5" style="stroke:#181818;stroke-width:0.5;" width="137.4668" x="165.27" y="229.78"/><ellipse cx="201.2135" cy="245.78" fill="#ADD1B2" rx="11" ry="11" style="stroke:#181818;stroke-width:1;"/><path d="M205.3228,251.78 L197.6041,251.78 L197.6041,239.3894 L205.3228,239.3894 L205.3228,241.5456 L200.0572,241.5456 L200.0572,244.2175 L204.8228,244.2175 L204.8228,246.3738 L200.0572,246.3738 L200.0572,249.6238 L205.3228,249.6238 L205.3228,251.78 Z " fill="#000000"/><text fill="#000000" font-family="sans-serif" font-size="14" lengthAdjust="spacing" textLength="58.9258" x="219.8676" y="250.6267">Etudiant</text><line style="stroke:#181818;stroke-width:0.5;" x1="166.27" x2="301.7368" y1="261.78" y2="261.78"/><ellipse cx="176.27" cy="275.4284" fill="none" rx="3" ry="3" style="stroke:#038048;stroke-width:1;"/><text fill="#000000" font-family="sans-serif" font-size="14" lengthAdjust="spacing" textLength="111.4668" x="185.27" y="278.7751">id_etudiant [PK]</text><line style="stroke:#181818;stroke-width:1;" x1="166.27" x2="301.7368" y1="286.0769" y2="286.0769"/><text fill="#000000" font-family="sans-serif" font-size="14" lengthAdjust="spacing" textLength="123.0195" x="171.27" y="303.072">id_utilisateur [FK]</text><text fill="#000000" font-family="sans-serif" font-size="14" lengthAdjust="spacing" textLength="58.2559" x="171.27" y="319.3689">mineure</text></g><!--class Candidature--><g class="entity" data-entity="Candidature" data-source-line="28" data-uid="ent0005" id="entity_Candidature"><rect fill="#F1F1F1" height="145.7813" rx="2.5" ry="2.5" style="stroke:#181818;stroke-width:0.5;" width="162.8965" x="62.55" y="403.67"/><ellipse cx="97.6629" cy="419.67" fill="#ADD1B2" rx="11" ry="11" style="stroke:#181818;stroke-width:1;"/><path d="M101.7723,425.67 L94.0535,425.67 L94.0535,413.2794 L101.7723,413.2794 L101.7723,415.4356 L96.5066,415.4356 L96.5066,418.1075 L101.2723,418.1075 L101.2723,420.2638 L96.5066,420.2638 L96.5066,423.5138 L101.7723,423.5138 L101.7723,425.67 Z " fill="#000000"/><text fill="#000000" font-family="sans-serif" font-size="14" lengthAdjust="spacing" textLength="86.2012" x="116.1324" y="424.5167">Candidature</text><line style="stroke:#181818;stroke-width:0.5;" x1="63.55" x2="224.4465" y1="435.67" y2="435.67"/><ellipse cx="73.55" cy="449.3184" fill="none" rx="3" ry="3" style="stroke:#038048;stroke-width:1;"/><text fill="#000000" font-family="sans-serif" font-size="14" lengthAdjust="spacing" textLength="136.8965" x="82.55" y="452.6651">id_candidature [PK]</text><line style="stroke:#181818;stroke-width:1;" x1="63.55" x2="224.4465" y1="459.9669" y2="459.9669"/><text fill="#000000" font-family="sans-serif" font-size="14" lengthAdjust="spacing" textLength="111.0771" x="68.55" y="476.962">id_etudiant [FK]</text><text fill="#000000" font-family="sans-serif" font-size="14" lengthAdjust="spacing" textLength="85.1758" x="68.55" y="493.2589">id_offre [FK]</text><text fill="#000000" font-family="sans-serif" font-size="14" lengthAdjust="spacing" textLength="122.6914" x="68.55" y="509.5557">date_candidature</text><text fill="#000000" font-family="sans-serif" font-size="14" lengthAdjust="spacing" textLength="15.9824" x="68.55" y="525.8526">cv</text><text fill="#000000" font-family="sans-serif" font-size="14" lengthAdjust="spacing" textLength="120.1143" x="68.55" y="542.1495">lettre_motivation</text></g><!--class Favoris--><g class="entity" data-entity="Favoris" data-source-line="39" data-uid="ent0006" id="entity_Favoris"><rect fill="#F1F1F1" height="96.8906" rx="2.5" ry="2.5" style="stroke:#181818;stroke-width:0.5;" width="126.0713" x="259.96" y="428.12"/><ellipse cx="294.6022" cy="444.12" fill="#ADD1B2" rx="11" ry="11" style="stroke:#181818;stroke-width:1;"/><path d="M298.7116,450.12 L290.9929,450.12 L290.9929,437.7294 L298.7116,437.7294 L298.7116,439.8856 L293.446,439.8856 L293.446,442.5575 L298.2116,442.5575 L298.2116,444.7138 L293.446,444.7138 L293.446,447.9638 L298.7116,447.9638 L298.7116,450.12 Z " fill="#000000"/><text fill="#000000" font-family="sans-serif" font-size="14" lengthAdjust="spacing" textLength="50.4219" x="312.9672" y="448.9667">Favoris</text><line style="stroke:#181818;stroke-width:0.5;" x1="260.96" x2="385.0313" y1="460.12" y2="460.12"/><ellipse cx="270.96" cy="473.7684" fill="none" rx="3" ry="3" style="stroke:#038048;stroke-width:1;"/><text fill="#000000" font-family="sans-serif" font-size="14" lengthAdjust="spacing" textLength="100.0713" x="279.96" y="477.1151">id_favoris [PK]</text><line style="stroke:#181818;stroke-width:1;" x1="260.96" x2="385.0313" y1="484.4169" y2="484.4169"/><text fill="#000000" font-family="sans-serif" font-size="14" lengthAdjust="spacing" textLength="111.0771" x="265.96" y="501.412">id_etudiant [FK]</text><text fill="#000000" font-family="sans-serif" font-size="14" lengthAdjust="spacing" textLength="85.1758" x="265.96" y="517.7089">id_offre [FK]</text></g><!--class OffreStage--><g class="entity" data-entity="OffreStage" data-source-line="46" data-uid="ent0007" id="entity_OffreStage"><rect fill="#F1F1F1" height="243.5625" rx="2.5" ry="2.5" style="stroke:#181818;stroke-width:0.5;" width="164.749" x="156.63" y="626.45"/><ellipse cx="197.3015" cy="642.45" fill="#ADD1B2" rx="11" ry="11" style="stroke:#181818;stroke-width:1;"/><path d="M201.4109,648.45 L193.6922,648.45 L193.6922,636.0594 L201.4109,636.0594 L201.4109,638.2156 L196.1453,638.2156 L196.1453,640.8875 L200.9109,640.8875 L200.9109,643.0438 L196.1453,643.0438 L196.1453,646.2938 L201.4109,646.2938 L201.4109,648.45 Z " fill="#000000"/><text fill="#000000" font-family="sans-serif" font-size="14" lengthAdjust="spacing" textLength="75.7012" x="217.0063" y="647.2967">OffreStage</text><line style="stroke:#181818;stroke-width:0.5;" x1="157.63" x2="320.379" y1="658.45" y2="658.45"/><ellipse cx="167.63" cy="672.0984" fill="none" rx="3" ry="3" style="stroke:#038048;stroke-width:1;"/><text fill="#000000" font-family="sans-serif" font-size="14" lengthAdjust="spacing" textLength="85.5654" x="176.63" y="675.4451">id_offre [PK]</text><line style="stroke:#181818;stroke-width:1;" x1="157.63" x2="320.379" y1="682.7469" y2="682.7469"/><text fill="#000000" font-family="sans-serif" font-size="14" lengthAdjust="spacing" textLength="124.168" x="162.63" y="699.742">id_entreprise [FK]</text><text fill="#000000" font-family="sans-serif" font-size="14" lengthAdjust="spacing" textLength="91.7178" x="162.63" y="716.0389">id_pilote [FK]</text><text fill="#000000" font-family="sans-serif" font-size="14" lengthAdjust="spacing" textLength="96.25" x="162.63" y="732.3357">id_admin [FK]</text><text fill="#000000" font-family="sans-serif" font-size="14" lengthAdjust="spacing" textLength="29.2373" x="162.63" y="748.6326">titre</text><text fill="#000000" font-family="sans-serif" font-size="14" lengthAdjust="spacing" textLength="77.8408" x="162.63" y="764.9295">description</text><text fill="#000000" font-family="sans-serif" font-size="14" lengthAdjust="spacing" textLength="86.6865" x="162.63" y="781.2264">competence</text><text fill="#000000" font-family="sans-serif" font-size="14" lengthAdjust="spacing" textLength="58.2559" x="162.63" y="797.5232">mineure</text><text fill="#000000" font-family="sans-serif" font-size="14" lengthAdjust="spacing" textLength="135.8916" x="162.63" y="813.8201">base_remuneration</text><text fill="#000000" font-family="sans-serif" font-size="14" lengthAdjust="spacing" textLength="79.3174" x="162.63" y="830.117">date_debut</text><text fill="#000000" font-family="sans-serif" font-size="14" lengthAdjust="spacing" textLength="56.2598" x="162.63" y="846.4139">date_fin</text><text fill="#000000" font-family="sans-serif" font-size="14" lengthAdjust="spacing" textLength="152.749" x="162.63" y="862.7107">nombre_candidatures</text></g><!--class PilotePromotion--><g class="entity" data-entity="PilotePromotion" data-source-line="62" data-uid="ent0008" id="entity_PilotePromotion"><rect fill="#F1F1F1" height="80.5938" rx="2.5" ry="2.5" style="stroke:#181818;stroke-width:0.5;" width="142.6738" x="297.66" y="947.01"/><ellipse cx="312.66" cy="963.01" fill="#ADD1B2" rx="11" ry="11" style="stroke:#181818;stroke-width:1;"/><path d="M316.7694,969.01 L309.0506,969.01 L309.0506,956.6194 L316.7694,956.6194 L316.7694,958.7756 L311.5038,958.7756 L311.5038,961.4475 L316.2694,961.4475 L316.2694,963.6038 L311.5038,963.6038 L311.5038,966.8538 L316.7694,966.8538 L316.7694,969.01 Z " fill="#000000"/><text fill="#000000" font-family="sans-serif" font-size="14" lengthAdjust="spacing" textLength="110.6738" x="326.66" y="967.8567">PilotePromotion</text><line style="stroke:#181818;stroke-width:0.5;" x1="298.66" x2="439.3338" y1="979.01" y2="979.01"/><ellipse cx="308.66" cy="992.6584" fill="none" rx="3" ry="3" style="stroke:#038048;stroke-width:1;"/><text fill="#000000" font-family="sans-serif" font-size="14" lengthAdjust="spacing" textLength="92.1074" x="317.66" y="996.0051">id_pilote [PK]</text><line style="stroke:#181818;stroke-width:1;" x1="298.66" x2="439.3338" y1="1003.3069" y2="1003.3069"/><text fill="#000000" font-family="sans-serif" font-size="14" lengthAdjust="spacing" textLength="123.0195" x="303.66" y="1020.302">id_utilisateur [FK]</text></g><!--class Administrateur--><g class="entity" data-entity="Administrateur" data-source-line="68" data-uid="ent0009" id="entity_Administrateur"><rect fill="#F1F1F1" height="80.5938" rx="2.5" ry="2.5" style="stroke:#181818;stroke-width:0.5;" width="136.6035" x="32.7" y="947.01"/><ellipse cx="47.7" cy="963.01" fill="#ADD1B2" rx="11" ry="11" style="stroke:#181818;stroke-width:1;"/><path d="M51.8094,969.01 L44.0906,969.01 L44.0906,956.6194 L51.8094,956.6194 L51.8094,958.7756 L46.5438,958.7756 L46.5438,961.4475 L51.3094,961.4475 L51.3094,963.6038 L46.5438,963.6038 L46.5438,966.8538 L51.8094,966.8538 L51.8094,969.01 Z " fill="#000000"/><text fill="#000000" font-family="sans-serif" font-size="14" lengthAdjust="spacing" textLength="104.6035" x="61.7" y="967.8567">Administrateur</text><line style="stroke:#181818;stroke-width:0.5;" x1="33.7" x2="168.3035" y1="979.01" y2="979.01"/><ellipse cx="43.7" cy="992.6584" fill="none" rx="3" ry="3" style="stroke:#038048;stroke-width:1;"/><text fill="#000000" font-family="sans-serif" font-size="14" lengthAdjust="spacing" textLength="96.6396" x="52.7" y="996.0051">id_admin [PK]</text><line style="stroke:#181818;stroke-width:1;" x1="33.7" x2="168.3035" y1="1003.3069" y2="1003.3069"/><text fill="#000000" font-family="sans-serif" font-size="14" lengthAdjust="spacing" textLength="123.0195" x="38.7" y="1020.302">id_utilisateur [FK]</text></g><!--link Utilisateur to Etudiant--><g class="link" data-entity-1="Utilisateur" data-entity-2="Etudiant" data-source-line="75" data-uid="lnk10" id="link_Utilisateur_Etudiant"><path codeLine="75" d="M234,161.16 C234,186.64 234,188.62 234,211.55" fill="none" id="Utilisateur-Etudiant" style="stroke:#181818;stroke-width:1;"/><line style="stroke:#181818;stroke-width:1;" x1="230" x2="238" y1="157.16" y2="157.16"/><line style="stroke:#181818;stroke-width:1;" x1="230" x2="238" y1="160.16" y2="160.16"/><line style="stroke:#181818;stroke-width:1;" x1="234" x2="234" y1="161.16" y2="153.16"/><line style="stroke:#181818;stroke-width:1;" x1="234" x2="240" y1="221.55" y2="229.55"/><line style="stroke:#181818;stroke-width:1;" x1="234" x2="228" y1="221.55" y2="229.55"/><line style="stroke:#181818;stroke-width:1;" x1="234" x2="234" y1="221.55" y2="229.55"/><ellipse cx="234" cy="215.55" fill="none" rx="4" ry="4" style="stroke:#181818;stroke-width:1;"/><text fill="#000000" font-family="sans-serif" font-size="13" lengthAdjust="spacing" textLength="20.6743" x="235" y="195.8469">1,1</text></g><!--link Utilisateur to PilotePromotion--><g class="link" data-entity-1="Utilisateur" data-entity-2="PilotePromotion" data-source-line="76" data-uid="lnk11" id="link_Utilisateur_PilotePromotion"><path codeLine="76" d="M316.3688,114.0889 C380.7688,145.0789 456,196.96 456,277.23 C456,277.23 456,277.23 456,749.23 C456,822.45 427.8029,885.3406 402.0529,931.1306" fill="none" id="Utilisateur-PilotePromotion" style="stroke:#181818;stroke-width:1;"/><line style="stroke:#181818;stroke-width:1;" x1="311.0299" x2="314.4989" y1="115.9589" y2="108.7501"/><line style="stroke:#181818;stroke-width:1;" x1="313.7332" x2="317.2021" y1="117.2597" y2="110.0509"/><line style="stroke:#181818;stroke-width:1;" x1="316.3688" x2="309.16" y1="114.0889" y2="110.62"/><line style="stroke:#181818;stroke-width:1;" x1="397.1513" x2="398.4598" y1="939.8469" y2="949.761"/><line style="stroke:#181818;stroke-width:1;" x1="397.1513" x2="388.0002" y1="939.8469" y2="943.879"/><line style="stroke:#181818;stroke-width:1;" x1="397.1513" x2="393.23" y1="939.8469" y2="946.82"/><ellipse cx="400.0923" cy="934.6172" fill="none" rx="4" ry="4" style="stroke:#181818;stroke-width:1;"/><text fill="#000000" font-family="sans-serif" font-size="13" lengthAdjust="spacing" textLength="20.6743" x="457" y="481.1269">1,1</text></g><!--link Utilisateur to Administrateur--><g class="link" data-entity-1="Utilisateur" data-entity-2="Administrateur" data-source-line="77" data-uid="lnk12" id="link_Utilisateur_Administrateur"><path codeLine="77" d="M151.7543,112.3663 C85.3043,142.7463 6,194.82 6,277.23 C6,277.23 6,277.23 6,749.23 C6,823.06 36.7448,885.8172 64.8348,931.3872" fill="none" id="Utilisateur-Administrateur" style="stroke:#181818;stroke-width:1;"/><line style="stroke:#181818;stroke-width:1;" x1="153.729" x2="157.0553" y1="107.0653" y2="114.341"/><line style="stroke:#181818;stroke-width:1;" x1="151.0006" x2="154.327" y1="108.3127" y2="115.5884"/><line style="stroke:#181818;stroke-width:1;" x1="151.7543" x2="159.03" y1="112.3663" y2="109.04"/><line style="stroke:#181818;stroke-width:1;" x1="70.0821" x2="79.3876" y1="939.8999" y2="943.5616"/><line style="stroke:#181818;stroke-width:1;" x1="70.0821" x2="69.1724" y1="939.8999" y2="949.8584"/><line style="stroke:#181818;stroke-width:1;" x1="70.0821" x2="74.28" y1="939.8999" y2="946.71"/><ellipse cx="66.9337" cy="934.7923" fill="none" rx="4" ry="4" style="stroke:#181818;stroke-width:1;"/><text fill="#000000" font-family="sans-serif" font-size="13" lengthAdjust="spacing" textLength="20.6743" x="7" y="481.1269">1,1</text></g><!--link Etudiant to Candidature--><g class="link" data-entity-1="Etudiant" data-entity-2="Candidature" data-source-line="79" data-uid="lnk13" id="link_Etudiant_Candidature"><path codeLine="79" d="M208.7667,334.2725 C198.2567,357.2025 196.2702,361.527 184.6002,386.987" fill="none" id="Etudiant-Candidature" style="stroke:#181818;stroke-width:1;"/><line style="stroke:#181818;stroke-width:1;" x1="206.7971" x2="214.0696" y1="328.9696" y2="332.3029"/><line style="stroke:#181818;stroke-width:1;" x1="205.5471" x2="212.8196" y1="331.6967" y2="335.0301"/><line style="stroke:#181818;stroke-width:1;" x1="208.7667" x2="212.1" y1="334.2725" y2="327"/><line style="stroke:#181818;stroke-width:1;" x1="180.4334" x2="182.5543" y1="396.0776" y2="405.8501"/><line style="stroke:#181818;stroke-width:1;" x1="180.4334" x2="171.6457" y1="396.0776" y2="400.8499"/><line style="stroke:#181818;stroke-width:1;" x1="180.4334" x2="177.1" y1="396.0776" y2="403.35"/><ellipse cx="182.9335" cy="390.6233" fill="none" rx="4" ry="4" style="stroke:#181818;stroke-width:1;"/><text fill="#000000" font-family="sans-serif" font-size="13" lengthAdjust="spacing" textLength="22.1279" x="199" y="369.7369">0,N</text></g><!--link Etudiant to Favoris--><g class="link" data-entity-1="Etudiant" data-entity-2="Favoris" data-source-line="80" data-uid="lnk14" id="link_Etudiant_Favoris"><path codeLine="80" d="M258.9622,334.2867 C272.8522,364.9367 280.0885,380.8957 293.9685,411.5157" fill="none" id="Etudiant-Favoris" style="stroke:#181818;stroke-width:1;"/><line style="stroke:#181818;stroke-width:1;" x1="253.6678" x2="260.9544" y1="332.2944" y2="328.9922"/><line style="stroke:#181818;stroke-width:1;" x1="254.9061" x2="262.1927" y1="335.0269" y2="331.7247"/><line style="stroke:#181818;stroke-width:1;" x1="258.9622" x2="255.66" y1="334.2867" y2="327"/><line style="stroke:#181818;stroke-width:1;" x1="298.0971" x2="306.8648" y1="420.6236" y2="425.4328"/><line style="stroke:#181818;stroke-width:1;" x1="298.0971" x2="295.9352" y1="420.6236" y2="430.3872"/><line style="stroke:#181818;stroke-width:1;" x1="298.0971" x2="301.4" y1="420.6236" y2="427.91"/><ellipse cx="295.6199" cy="415.1589" fill="none" rx="4" ry="4" style="stroke:#181818;stroke-width:1;"/><text fill="#000000" font-family="sans-serif" font-size="13" lengthAdjust="spacing" textLength="22.1279" x="276" y="369.7369">0,N</text></g><!--link Candidature to OffreStage--><g class="link" data-entity-1="Candidature" data-entity-2="OffreStage" data-source-line="81" data-uid="lnk15" id="link_Candidature_OffreStage"><path codeLine="81" d="M172.1177,557.3756 C180.3877,580.8556 184.4937,592.4939 193.6637,618.5439" fill="none" id="Candidature-OffreStage" style="stroke:#181818;stroke-width:1;"/><line style="stroke:#181818;stroke-width:1;" x1="172.1177" x2="163.8008" y1="557.3756" y2="551.8233"/><line style="stroke:#181818;stroke-width:1;" x1="172.1177" x2="175.1192" y1="557.3756" y2="547.8367"/><line style="stroke:#181818;stroke-width:1;" x1="172.1177" x2="169.46" y1="557.3756" y2="549.83"/><line style="stroke:#181818;stroke-width:1;" x1="169.0093" x2="176.5549" y1="560.5909" y2="557.9332"/><line style="stroke:#181818;stroke-width:1;" x1="198.7649" x2="191.2188" y1="620.9888" y2="623.6451"/><line style="stroke:#181818;stroke-width:1;" x1="197.7688" x2="190.2226" y1="618.159" y2="620.8153"/><line style="stroke:#181818;stroke-width:1;" x1="193.6637" x2="196.32" y1="618.5439" y2="626.09"/><text fill="#000000" font-family="sans-serif" font-size="13" lengthAdjust="spacing" textLength="22.1279" x="187" y="592.5169">N,1</text></g><!--link Favoris to OffreStage--><g class="link" data-entity-1="Favoris" data-entity-2="OffreStage" data-source-line="82" data-uid="lnk16" id="link_Favoris_OffreStage"><path codeLine="82" d="M305.7,533.0978 C296.95,561.1778 290.2392,582.742 279.1592,618.312" fill="none" id="Favoris-OffreStage" style="stroke:#181818;stroke-width:1;"/><line style="stroke:#181818;stroke-width:1;" x1="305.7" x2="302.3517" y1="533.0978" y2="523.675"/><line style="stroke:#181818;stroke-width:1;" x1="305.7" x2="313.8083" y1="533.0978" y2="527.245"/><line style="stroke:#181818;stroke-width:1;" x1="305.7" x2="308.08" y1="533.0978" y2="525.46"/><line style="stroke:#181818;stroke-width:1;" x1="301.2861" x2="308.9239" y1="533.8172" y2="536.1972"/><line style="stroke:#181818;stroke-width:1;" x1="281.7886" x2="274.1506" y1="623.3206" y2="620.9414"/><line style="stroke:#181818;stroke-width:1;" x1="282.6808" x2="275.0428" y1="620.4564" y2="618.0771"/><line style="stroke:#181818;stroke-width:1;" x1="279.1592" x2="276.78" y1="618.312" y2="625.95"/><text fill="#000000" font-family="sans-serif" font-size="13" lengthAdjust="spacing" textLength="22.1279" x="291" y="592.5169">N,1</text></g><!--link OffreStage to PilotePromotion--><g class="link" data-entity-1="OffreStage" data-entity-2="PilotePromotion" data-source-line="84" data-uid="lnk17" id="link_OffreStage_PilotePromotion"><path codeLine="84" d="M309.1763,877.2147 C324.3263,904.8447 326.8717,909.4992 338.5417,930.7692" fill="none" id="OffreStage-PilotePromotion" style="stroke:#181818;stroke-width:1;"/><line style="stroke:#181818;stroke-width:1;" x1="303.7458" x2="310.7605" y1="875.6305" y2="871.7842"/><line style="stroke:#181818;stroke-width:1;" x1="305.1881" x2="312.2029" y1="878.261" y2="874.4147"/><line style="stroke:#181818;stroke-width:1;" x1="309.1763" x2="305.33" y1="877.2147" y2="870.2"/><line style="stroke:#181818;stroke-width:1;" x1="343.3519" x2="352.4603" y1="939.5363" y2="943.6639"/><line style="stroke:#181818;stroke-width:1;" x1="343.3519" x2="341.9397" y1="939.5363" y2="949.4361"/><line style="stroke:#181818;stroke-width:1;" x1="343.3519" x2="347.2" y1="939.5363" y2="946.55"/><ellipse cx="340.4658" cy="934.276" fill="none" rx="4" ry="4" style="stroke:#181818;stroke-width:1;"/><text fill="#000000" font-family="sans-serif" font-size="13" lengthAdjust="spacing" textLength="22.1279" x="331" y="913.0769">1,N</text></g><!--link OffreStage to Administrateur--><g class="link" data-entity-1="OffreStage" data-entity-2="Administrateur" data-source-line="85" data-uid="lnk18" id="link_OffreStage_Administrateur"><path codeLine="85" d="M164.5642,877.1132 C148.4742,904.7432 145.5847,909.7232 133.2047,930.9932" fill="none" id="OffreStage-Administrateur" style="stroke:#181818;stroke-width:1;"/><line style="stroke:#181818;stroke-width:1;" x1="163.1205" x2="170.0337" y1="871.6437" y2="875.6695"/><line style="stroke:#181818;stroke-width:1;" x1="161.6108" x2="168.524" y1="874.2362" y2="878.262"/><line style="stroke:#181818;stroke-width:1;" x1="164.5642" x2="168.59" y1="877.1132" y2="870.2"/><line style="stroke:#181818;stroke-width:1;" x1="128.1743" x2="129.3356" y1="939.6359" y2="949.5682"/><line style="stroke:#181818;stroke-width:1;" x1="128.1743" x2="118.9644" y1="939.6359" y2="943.5318"/><line style="stroke:#181818;stroke-width:1;" x1="128.1743" x2="124.15" y1="939.6359" y2="946.55"/><ellipse cx="131.1925" cy="934.4503" fill="none" rx="4" ry="4" style="stroke:#181818;stroke-width:1;"/><text fill="#000000" font-family="sans-serif" font-size="13" lengthAdjust="spacing" textLength="22.1279" x="151" y="913.0769">1,N</text></g><!--link OffreStage to Entreprise--><g class="link" data-entity-1="OffreStage" data-entity-2="Entreprise" data-source-line="86" data-uid="lnk19" id="link_OffreStage_Entreprise"><path codeLine="86" d="M239,878.24 C239,953.75 239,1032.39 239,1096.33" fill="none" id="OffreStage-Entreprise" style="stroke:#181818;stroke-width:1;"/><line style="stroke:#181818;stroke-width:1;" x1="239" x2="233" y1="878.24" y2="870.24"/><line style="stroke:#181818;stroke-width:1;" x1="239" x2="245" y1="878.24" y2="870.24"/><line style="stroke:#181818;stroke-width:1;" x1="239" x2="239" y1="878.24" y2="870.24"/><line style="stroke:#181818;stroke-width:1;" x1="235" x2="243" y1="880.24" y2="880.24"/><line style="stroke:#181818;stroke-width:1;" x1="243" x2="235" y1="1100.33" y2="1100.33"/><line style="stroke:#181818;stroke-width:1;" x1="243" x2="235" y1="1097.33" y2="1097.33"/><line style="stroke:#181818;stroke-width:1;" x1="239" x2="239" y1="1096.33" y2="1104.33"/><text fill="#000000" font-family="sans-serif" font-size="13" lengthAdjust="spacing" textLength="22.1279" x="240" y="991.8769">N,1</text></g><!--link Administrateur to Entreprise--><g class="link" data-entity-1="Administrateur" data-entity-2="Entreprise" data-source-line="88" data-uid="lnk20" id="link_Administrateur_Entreprise"><path codeLine="88" d="M134.6609,1034.2112 C150.9409,1056.4112 156.405,1063.8651 175.495,1089.8951" fill="none" id="Administrateur-Entreprise" style="stroke:#181818;stroke-width:1;"/><line style="stroke:#181818;stroke-width:1;" x1="129.0698" x2="135.5211" y1="1033.3511" y2="1028.6202"/><line style="stroke:#181818;stroke-width:1;" x1="130.8439" x2="137.2952" y1="1035.7703" y2="1031.0394"/><line style="stroke:#181818;stroke-width:1;" x1="134.6609" x2="129.93" y1="1034.2112" y2="1027.76"/><line style="stroke:#181818;stroke-width:1;" x1="181.4089" x2="190.9783" y1="1097.9589" y2="1100.8617"/><line style="stroke:#181818;stroke-width:1;" x1="181.4089" x2="181.3017" y1="1097.9589" y2="1107.9583"/><line style="stroke:#181818;stroke-width:1;" x1="181.4089" x2="186.14" y1="1097.9589" y2="1104.41"/><ellipse cx="177.8605" cy="1093.1206" fill="none" rx="4" ry="4" style="stroke:#181818;stroke-width:1;"/><text fill="#000000" font-family="sans-serif" font-size="13" lengthAdjust="spacing" textLength="22.1279" x="163" y="1070.6769">1,N</text></g><!--link PilotePromotion to Entreprise--><g class="link" data-entity-1="PilotePromotion" data-entity-2="Entreprise" data-source-line="89" data-uid="lnk21" id="link_PilotePromotion_Entreprise"><path codeLine="89" d="M337.2022,1034.3416 C321.8622,1056.5416 317.0101,1063.5697 299.0301,1089.5997" fill="none" id="PilotePromotion-Entreprise" style="stroke:#181818;stroke-width:1;"/><line style="stroke:#181818;stroke-width:1;" x1="336.1853" x2="342.7669" y1="1028.7769" y2="1033.3247"/><line style="stroke:#181818;stroke-width:1;" x1="334.4799" x2="341.0615" y1="1031.245" y2="1035.7928"/><line style="stroke:#181818;stroke-width:1;" x1="337.2022" x2="341.75" y1="1034.3416" y2="1027.76"/><line style="stroke:#181818;stroke-width:1;" x1="293.3467" x2="293.7368" y1="1097.8276" y2="1107.82"/><line style="stroke:#181818;stroke-width:1;" x1="293.3467" x2="283.8632" y1="1097.8276" y2="1101"/><line style="stroke:#181818;stroke-width:1;" x1="293.3467" x2="288.8" y1="1097.8276" y2="1104.41"/><ellipse cx="296.7567" cy="1092.8909" fill="none" rx="4" ry="4" style="stroke:#181818;stroke-width:1;"/><text fill="#000000" font-family="sans-serif" font-size="13" lengthAdjust="spacing" textLength="22.1279" x="320" y="1070.6769">1,N</text></g><!--SRC=[dLH1QiCm4Bph5SAN7ff0S-sjbEPII4DBJwKOnTuKWIqPIGwK90_gE_gnoXifNZbE2FN5sl78CvfT6vIJxfjdxqvMqWe7hScui9pKVCkulswvBFEMm1_BvqzyCftYJUaQxus1k8HQo0fNjNPv2NaZh0K4ZAw0xHc3OE19EGEDaHPGlo-fFFJeENKBHUSErvKk1DgLMY5GWYsCR8wrqYuruTfI2kKE5aAH68ZOK7wOpJmyhgNoTIBoA5GfI-4yZ3gafb85WKVKUYTHoeDwlUxO4V6xWRu7mM9po0QSppBtVP6RGq3Uuj7ZN6oqZndzXJNrjWxGFtoH85uwzCs9hqCEVKcbmjOH8J8BHAgHbMzg0edITw57l7Y8OZWEXQuRSA0AI7hNhLV2GcwWRXKOCazTm2MiMjUNQnbdgrwP97vB3xz4dqkZkmveXGaCC1f3FDOLOqT47hgJI-jC_s6d49K8CLsdSCDVeS8WBCTESDJy_R6C_Zfsk-bKR_jFwPvdiyai6-CC3t-1EZX3PBAZJE3HBykJxYQBx8GJfpi-ftlsdhBRqS7qh4Kd5NUTPp22NJgXbpnbZXqm9GPXyfiCmfonmUxOWuIAxniQEily0m00]--></g></svg>