<svg width="60" height="60" viewBox="0 0 60 60" fill="none" xmlns="http://www.w3.org/2000/svg">
<g id="Generic avatar">
<rect width="60" height="60" rx="30" fill="#EADDFF"/>
<g id="Avatar Placeholder">
<path fill-rule="evenodd" clip-rule="evenodd" d="M39.0004 24C39.0004 28.9706 34.9709 33 30.0004 33C25.0298 33 21.0004 28.9706 21.0004 24C21.0004 19.0294 25.0298 15 30.0004 15C34.9709 15 39.0004 19.0294 39.0004 24ZM36.0004 24C36.0004 27.3137 33.3141 30 30.0004 30C26.6867 30 24.0004 27.3137 24.0004 24C24.0004 20.6863 26.6867 18 30.0004 18C33.3141 18 36.0004 20.6863 36.0004 24Z" fill="#4F378A"/>
<path d="M30.0004 37.5C20.2888 37.5 12.0143 43.2426 8.8623 51.2881C9.63015 52.0505 10.439 52.7717 11.2853 53.4481C13.6324 46.0615 20.9954 40.5 30.0004 40.5C39.0053 40.5 46.3683 46.0615 48.7154 53.4481C49.5617 52.7718 50.3706 52.0506 51.1384 51.2881C47.9865 43.2426 39.712 37.5 30.0004 37.5Z" fill="#4F378A"/>
</g>
</g>
</svg>
